<svg width="16" height="16" viewBox="0 0 16 16" fill="none" xmlns="http://www.w3.org/2000/svg">
<path fill-rule="evenodd" clip-rule="evenodd" d="M14.7705 3.88666L15.2371 4.36C15.3002 4.42259 15.3357 4.50778 15.3357 4.59666C15.3357 4.68554 15.3002 4.77074 15.2371 4.83333L8.17047 11.9C8.10789 11.9631 8.02269 11.9986 7.93381 11.9986C7.84493 11.9986 7.75973 11.9631 7.69714 11.9L4.10381 8.30666C4.0407 8.24407 4.00521 8.15888 4.00521 8.07C4.00521 7.98112 4.0407 7.89592 4.10381 7.83333L4.57047 7.36666C4.63306 7.30356 4.71826 7.26806 4.80714 7.26806C4.89602 7.26806 4.98122 7.30356 5.04381 7.36666L6.27047 8.62L10.9371 3.92C11.069 3.79214 11.2786 3.79214 11.4105 3.92L11.8771 4.39333C11.9402 4.45592 11.9757 4.54112 11.9757 4.63C11.9757 4.71888 11.9402 4.80407 11.8771 4.86666L7.21047 9.53333L7.93047 10.2533L14.2971 3.88666C14.429 3.75881 14.6386 3.75881 14.7705 3.88666ZM5.54381 11.1933L1.71047 7.36666C1.64789 7.30356 1.56269 7.26806 1.47381 7.26806C1.38493 7.26806 1.29973 7.30356 1.23714 7.36666L0.770474 7.83333C0.70737 7.89592 0.671875 7.98112 0.671875 8.07C0.671875 8.15888 0.70737 8.24407 0.770474 8.30666L4.36381 11.9C4.4264 11.9631 4.5116 11.9986 4.60047 11.9986C4.68935 11.9986 4.77455 11.9631 4.83714 11.9L5.54381 11.1933Z" fill="#007AFF"/>
</svg>
