<svg width="28" height="28" viewBox="0 0 28 28" fill="none" xmlns="http://www.w3.org/2000/svg">
<path d="M15.5217 23.6133C12.7648 26.3574 8.30593 26.3574 5.54907 23.6133C2.81698 20.8804 2.81698 16.453 5.54907 13.72L15.4633 3.87332C17.5349 1.81941 20.8769 1.81941 22.9485 3.87332C23.9413 4.85309 24.5 6.18919 24.5 7.58332C24.5 8.97746 23.9413 10.3136 22.9485 11.2933L13.8518 20.3233C13.1935 20.9895 12.2956 21.3645 11.3586 21.3645C10.4217 21.3645 9.52373 20.9895 8.86548 20.3233C8.20586 19.6666 7.8351 18.7745 7.8351 17.8442C7.8351 16.9138 8.20586 16.0217 8.86548 15.365L14.6342 9.64832C14.7438 9.53789 14.893 9.47577 15.0487 9.47577C15.2044 9.47577 15.3536 9.53789 15.4633 9.64832L16.0939 10.2667C16.2044 10.3762 16.2666 10.5253 16.2666 10.6808C16.2666 10.8364 16.2044 10.9855 16.0939 11.095L10.3252 16.8117C9.83717 17.397 9.87755 18.2577 10.4182 18.7949C10.9589 19.332 11.8207 19.3675 12.4038 18.8767L21.5005 9.85832C22.106 9.25813 22.4465 8.44128 22.4465 7.58916C22.4465 6.73704 22.106 5.92018 21.5005 5.31999C20.2343 4.06232 18.1892 4.06232 16.923 5.31999L6.98541 15.1667C5.05535 17.1016 5.05535 20.2317 6.98541 22.1667C8.94728 24.0891 12.0884 24.0891 14.0503 22.1667L20.6481 15.6217C20.8805 15.3903 21.2564 15.3903 21.4889 15.6217L22.1078 16.24C22.2207 16.3458 22.2847 16.4936 22.2847 16.6483C22.2847 16.803 22.2207 16.9508 22.1078 17.0567L15.5217 23.6133Z" fill="#007AFF"/>
</svg>
