<svg width="24" height="24" viewBox="0 0 24 24" fill="none" xmlns="http://www.w3.org/2000/svg">
<path d="M17.17 20.0801C17.2647 20.1739 17.3179 20.3017 17.3179 20.4351C17.3179 20.5684 17.2647 20.6962 17.17 20.7901L16.11 21.8501C16.0193 21.9467 15.8926 22.0016 15.76 22.0016C15.6274 22.0016 15.5007 21.9467 15.41 21.8501L6.22 12.6601C6.07931 12.5195 6.00018 12.3289 6 12.1301V11.8701C6.00018 11.6712 6.07931 11.4806 6.22 11.3401L15.41 2.15005C15.5007 2.05338 15.6274 1.99854 15.76 1.99854C15.8926 1.99854 16.0193 2.05338 16.11 2.15005L17.17 3.21005C17.2647 3.30394 17.3179 3.43174 17.3179 3.56505C17.3179 3.69837 17.2647 3.82617 17.17 3.92005L9.09 12.0001L17.17 20.0801Z" fill="#242424"/>
</svg>
