<svg width="12" height="12" viewBox="0 0 12 12" fill="none" xmlns="http://www.w3.org/2000/svg">
<path fill-rule="evenodd" clip-rule="evenodd" d="M9.5 2H9V1.25C9 1.11193 8.88807 1 8.75 1H8.25C8.11193 1 8 1.11193 8 1.25V2H4V1.25C4 1.11193 3.88807 1 3.75 1H3.25C3.11193 1 3 1.11193 3 1.25V2H2.5C1.94772 2 1.5 2.44772 1.5 3V9.5C1.5 10.0523 1.94772 10.5 2.5 10.5H9.5C10.0523 10.5 10.5 10.0523 10.5 9.5V3C10.5 2.44772 10.0523 2 9.5 2ZM9.49994 9.5H2.49994V4H9.49994V9.5ZM6.25024 6H5.75024C5.61216 6 5.50024 5.88807 5.50024 5.75V5.25C5.50024 5.11193 5.61216 5 5.75024 5H6.25024C6.38831 5 6.50023 5.11193 6.50023 5.25V5.75C6.50023 5.88807 6.38831 6 6.25024 6ZM7.75028 6H8.25028C8.38835 6 8.50028 5.88807 8.50028 5.75V5.25C8.50028 5.11193 8.38835 5 8.25028 5H7.75028C7.61221 5 7.50028 5.11193 7.50028 5.25V5.75C7.50028 5.88807 7.61221 6 7.75028 6ZM4.25019 6H3.75019C3.61212 6 3.50019 5.88807 3.50019 5.75V5.25C3.50019 5.11193 3.61212 5 3.75019 5H4.25019C4.38826 5 4.50019 5.11193 4.50019 5.25V5.75C4.50019 5.88807 4.38826 6 4.25019 6ZM5.75024 8H6.25024C6.38831 8 6.50023 7.88807 6.50023 7.75V7.25C6.50023 7.11193 6.38831 7 6.25024 7H5.75024C5.61216 7 5.50024 7.11193 5.50024 7.25V7.75C5.50024 7.88807 5.61216 8 5.75024 8ZM4.25019 8H3.75019C3.61212 8 3.50019 7.88807 3.50019 7.75V7.25C3.50019 7.11193 3.61212 7 3.75019 7H4.25019C4.38826 7 4.50019 7.11193 4.50019 7.25V7.75C4.50019 7.88807 4.38826 8 4.25019 8Z" fill="white"/>
</svg>
