<svg width="64" height="64" viewBox="0 0 64 64" fill="none" xmlns="http://www.w3.org/2000/svg">
<path fill-rule="evenodd" clip-rule="evenodd" d="M32.0007 5.33334C17.2731 5.33334 5.33398 17.2724 5.33398 32C5.33398 46.7276 17.2731 58.6667 32.0007 58.6667C46.7282 58.6667 58.6673 46.7276 58.6673 32C58.6673 24.9276 55.8578 18.1448 50.8568 13.1438C45.8559 8.14286 39.0731 5.33334 32.0007 5.33334ZM32.0007 53.3333C20.2186 53.3333 10.6673 43.7821 10.6673 32C10.6673 20.2179 20.2186 10.6667 32.0007 10.6667C43.7827 10.6667 53.334 20.2179 53.334 32C53.334 37.658 51.0864 43.0842 47.0856 47.085C43.0848 51.0857 37.6586 53.3333 32.0007 53.3333ZM40.3207 22.64C40.8391 22.1318 41.6689 22.1318 42.1873 22.64L43.5206 24.0533C43.7731 24.3037 43.9151 24.6445 43.9151 25C43.9151 25.3555 43.7731 25.6963 43.5206 25.9467L28.534 40.9333C28.292 41.1912 27.9542 41.3374 27.6007 41.3374C27.2471 41.3374 26.9093 41.1912 26.6673 40.9333L20.4007 34.6133C20.1482 34.363 20.0063 34.0222 20.0063 33.6667C20.0063 33.3112 20.1482 32.9704 20.4007 32.72L21.814 31.3067C22.0559 31.0489 22.3938 30.9026 22.7473 30.9026C23.1009 30.9026 23.4387 31.0489 23.6807 31.3067L27.6807 35.28L40.3207 22.64Z" fill="#242424"/>
</svg>
