<svg width="24" height="24" viewBox="0 0 24 24" fill="none" xmlns="http://www.w3.org/2000/svg">
<path d="M15.7802 11.28C15.9209 11.4205 16 11.6112 16.0002 11.81V12.19C15.9979 12.3884 15.919 12.5783 15.7802 12.72L10.6402 17.85C10.5463 17.9447 10.4185 17.9979 10.2852 17.9979C10.1518 17.9979 10.024 17.9447 9.93016 17.85L9.22016 17.14C9.1261 17.0478 9.07309 16.9217 9.07309 16.79C9.07309 16.6583 9.1261 16.5322 9.22016 16.44L13.6702 12L9.22016 7.56C9.12551 7.46612 9.07227 7.33832 9.07227 7.205C9.07227 7.07169 9.12551 6.94389 9.22016 6.85L9.93016 6.15C10.024 6.05535 10.1518 6.00211 10.2852 6.00211C10.4185 6.00211 10.5463 6.05535 10.6402 6.15L15.7802 11.28Z" fill="#F5F5F5"/>
</svg>
