<svg width="24" height="24" viewBox="0 0 24 24" fill="none" xmlns="http://www.w3.org/2000/svg">
<path d="M6.15015 7.56C6.05549 7.46612 6.00225 7.33832 6.00225 7.205C6.00225 7.07168 6.05549 6.94388 6.15015 6.85L6.85015 6.15C6.94403 6.05535 7.07183 6.0021 7.20515 6.0021C7.33847 6.0021 7.46627 6.05535 7.56015 6.15L12.0001 10.59L16.4401 6.15C16.534 6.05534 16.6618 6.0021 16.7951 6.0021C16.9285 6.0021 17.0563 6.05534 17.1501 6.15L17.8501 6.85C17.9448 6.94388 17.998 7.07168 17.998 7.205C17.998 7.33832 17.9448 7.46612 17.8501 7.56L13.4101 12L17.8501 16.44C17.9448 16.5339 17.998 16.6617 17.998 16.795C17.998 16.9283 17.9448 17.0561 17.8501 17.15L17.1501 17.85C17.0563 17.9447 16.9285 17.9979 16.7951 17.9979C16.6618 17.9979 16.534 17.9447 16.4401 17.85L12.0001 13.41L7.56015 17.85C7.46627 17.9447 7.33847 17.9979 7.20515 17.9979C7.07183 17.9979 6.94403 17.9447 6.85015 17.85L6.15015 17.15C6.05549 17.0561 6.00225 16.9283 6.00225 16.795C6.00225 16.6617 6.05549 16.5339 6.15015 16.44L10.5901 12L6.15015 7.56Z" fill="#8E8E93"/>
</svg>
