<svg width="24" height="24" viewBox="0 0 24 24" fill="none" xmlns="http://www.w3.org/2000/svg">
<path fill-rule="evenodd" clip-rule="evenodd" d="M2 12C2 6.47715 6.47715 2 12 2C14.6522 2 17.1957 3.05357 19.0711 4.92893C20.9464 6.8043 22 9.34784 22 12C22 17.5228 17.5228 22 12 22C6.47715 22 2 17.5228 2 12ZM14.5 10.25C14.7761 10.25 15 10.0261 15 9.75V9C15 7.89543 14.1046 7 13 7V6.5C13 6.22386 12.7761 6 12.5 6H11.5C11.2239 6 11 6.22386 11 6.5V7C9.89543 7 9 7.89543 9 9V9.81C9.0015 10.4065 9.26919 10.9712 9.73 11.35L13.16 14.18C13.2203 14.224 13.2542 14.2955 13.25 14.37V15.25H10.75V14.25C10.75 13.9739 10.5261 13.75 10.25 13.75H9.5C9.22386 13.75 9 13.9739 9 14.25V15C9 16.1046 9.89543 17 11 17V17.5C11 17.7761 11.2239 18 11.5 18H12.5C12.7761 18 13 17.7761 13 17.5V17C14.1046 17 15 16.1046 15 15V14.19C14.9985 13.5935 14.7308 13.0288 14.27 12.65L10.84 9.82C10.7797 9.77603 10.7458 9.7045 10.75 9.63V8.75H13.25V9.75C13.25 10.0261 13.4739 10.25 13.75 10.25H14.5Z" fill="#34C759"/>
</svg>
