<svg width="24" height="24" viewBox="0 0 24 24" fill="none" xmlns="http://www.w3.org/2000/svg">
<g opacity="0.5">
<path d="M19.8479 7.24999L9.2479 17.85C9.15402 17.9447 9.02622 17.9979 8.8929 17.9979C8.75958 17.9979 8.63178 17.9447 8.5379 17.85L3.1479 12.46C3.05324 12.3661 3 12.2383 3 12.105C3 11.9717 3.05324 11.8439 3.1479 11.75L3.8479 11.05C3.94178 10.9553 4.06958 10.9021 4.2029 10.9021C4.33622 10.9021 4.46402 10.9553 4.5579 11.05L8.8879 15.38L18.4379 5.82999C18.6357 5.63821 18.9501 5.63821 19.1479 5.82999L19.8479 6.53999C19.9426 6.63388 19.9958 6.76168 19.9958 6.89499C19.9958 7.02831 19.9426 7.15611 19.8479 7.24999Z" fill="black"/>
</g>
</svg>
