<svg width="24" height="24" viewBox="0 0 24 24" fill="none" xmlns="http://www.w3.org/2000/svg">
<path d="M18.7177 4.57514C18.5225 4.37987 18.2059 4.37988 18.0106 4.57514L6.57669 16.0091L6.58376 9.72287C6.58431 9.58956 6.53159 9.46154 6.43732 9.36727C6.34305 9.273 6.21503 9.22028 6.08172 9.22083L5.0847 9.2279C4.95138 9.22735 4.82336 9.28007 4.72909 9.37434C4.63482 9.46861 4.5821 9.59663 4.58265 9.72994L4.57558 18.4061C4.57546 18.605 4.6543 18.7957 4.79478 18.9365L5.06348 19.2052C5.20541 19.3438 5.3954 19.4224 5.59381 19.4244L14.27 19.4173C14.4033 19.4179 14.5313 19.3651 14.6256 19.2709C14.7199 19.1766 14.7726 19.0486 14.7721 18.9153L14.7721 17.9112C14.7734 17.7795 14.7217 17.6528 14.6286 17.5597C14.5354 17.4666 14.4088 17.4149 14.2771 17.4162L7.99091 17.4233L19.4248 5.98935C19.6201 5.79409 19.6201 5.47751 19.4248 5.28224L18.7177 4.57514Z" fill="black"/>
</svg>
