<svg width="20" height="20" viewBox="0 0 20 20" fill="none" xmlns="http://www.w3.org/2000/svg">
<path fill-rule="evenodd" clip-rule="evenodd" d="M16.667 3.33333H3.33366C2.41318 3.33333 1.66699 4.07952 1.66699 5V15C1.66699 15.9205 2.41318 16.6667 3.33366 16.6667H16.667C17.5875 16.6667 18.3337 15.9205 18.3337 15V5C18.3337 4.07952 17.5875 3.33333 16.667 3.33333ZM16.667 5V7.41667L10.542 11.7083C10.2163 11.9344 9.78439 11.9344 9.45866 11.7083L3.33366 7.41667V5H16.667ZM3.33366 9.16667V15H16.667V9.16667L11.3753 12.8667C10.5495 13.4439 9.45112 13.4439 8.62533 12.8667L3.33366 9.16667Z" fill="#F5F5F5"/>
</svg>
