<svg width="16" height="16" viewBox="0 0 16 16" fill="none" xmlns="http://www.w3.org/2000/svg">
<path fill-rule="evenodd" clip-rule="evenodd" d="M7.9987 1.33337C4.3168 1.33337 1.33203 4.31814 1.33203 8.00004C1.33203 11.6819 4.3168 14.6667 7.9987 14.6667C11.6806 14.6667 14.6654 11.6819 14.6654 8.00004C14.6654 6.23193 13.963 4.53624 12.7127 3.286C11.4625 2.03575 9.76681 1.33337 7.9987 1.33337ZM8.66536 10.3334C8.66536 10.5175 8.51613 10.6667 8.33203 10.6667H7.66536C7.48127 10.6667 7.33203 10.5175 7.33203 10.3334V9.66671C7.33203 9.48261 7.48127 9.33337 7.66536 9.33337H8.33203C8.51613 9.33337 8.66536 9.48261 8.66536 9.66671V10.3334ZM8.35203 8.00004C8.4368 8.00065 8.50853 7.93754 8.5187 7.85337L8.78536 5.70671C8.79686 5.6116 8.76689 5.51615 8.70309 5.44469C8.63928 5.37324 8.54782 5.33268 8.45203 5.33337H7.54536C7.44957 5.33268 7.35811 5.37324 7.29431 5.44469C7.23051 5.51615 7.20053 5.6116 7.21203 5.70671L7.4787 7.85337C7.48887 7.93754 7.56059 8.00065 7.64536 8.00004H8.35203Z" fill="#007AFF"/>
</svg>
