<svg width="16" height="16" viewBox="0 0 16 16" fill="none" xmlns="http://www.w3.org/2000/svg">
<path fill-rule="evenodd" clip-rule="evenodd" d="M7.99967 1.33333C4.31778 1.33333 1.33301 4.3181 1.33301 8C1.33301 11.6819 4.31778 14.6667 7.99967 14.6667C11.6816 14.6667 14.6663 11.6819 14.6663 8C14.6663 6.23188 13.964 4.53619 12.7137 3.28595C11.4635 2.03571 9.76779 1.33333 7.99967 1.33333ZM8.66634 10.3333C8.66634 10.5174 8.5171 10.6667 8.33301 10.6667H7.66634C7.48225 10.6667 7.33301 10.5174 7.33301 10.3333V9.66666C7.33301 9.48257 7.48225 9.33333 7.66634 9.33333H8.33301C8.5171 9.33333 8.66634 9.48257 8.66634 9.66666V10.3333ZM8.35301 8C8.43778 8.00061 8.5095 7.93749 8.51967 7.85333L8.78634 5.70666C8.79784 5.61156 8.76786 5.51611 8.70406 5.44465C8.64026 5.37319 8.5488 5.33264 8.45301 5.33333H7.54634C7.45055 5.33264 7.35909 5.37319 7.29529 5.44465C7.23148 5.51611 7.20151 5.61156 7.21301 5.70666L7.47967 7.85333C7.48984 7.93749 7.56157 8.00061 7.64634 8H8.35301Z" fill="#007AFF"/>
</svg>
