<svg width="24" height="24" viewBox="0 0 24 24" fill="none" xmlns="http://www.w3.org/2000/svg">
<path fill-rule="evenodd" clip-rule="evenodd" d="M4.99954 7.41453L5.75954 2.83922C5.83877 2.35067 6.26415 1.99371 6.75954 2.00008H7.19954C7.66525 1.99912 8.12452 2.10868 8.53954 2.31976L10.2495 3.1489C11.3543 3.68586 12.6448 3.68586 13.7495 3.1489L15.4595 2.31976C15.8746 2.10868 16.3338 1.99912 16.7995 2.00008H17.2395C17.7349 1.99371 18.1603 2.35067 18.2395 2.83922L18.9995 7.41453C19.0232 7.56019 18.9811 7.70885 18.8847 7.82062C18.7882 7.93239 18.6473 7.99584 18.4995 7.99393H5.49954C5.35183 7.99584 5.21084 7.93239 5.11439 7.82062C5.01794 7.70885 4.97589 7.56019 4.99954 7.41453ZM20.8395 11.1407L19.9995 10.2816C19.8108 10.0946 19.5553 9.99035 19.2895 9.99188H4.70954C4.44374 9.99035 4.18826 10.0946 3.99954 10.2816L3.14954 11.1407C3.00948 11.2834 2.96805 11.4958 3.04423 11.6806C3.1204 11.8654 3.2995 11.987 3.49954 11.9898H20.4995C20.6996 11.987 20.8787 11.8654 20.9549 11.6806C21.031 11.4958 20.9896 11.2834 20.8495 11.1407H20.8395ZM13.7995 15.6061C14.5508 14.5924 15.737 13.9925 16.9995 13.9878C19.2087 13.9878 20.9995 15.7768 20.9995 17.9837C20.9995 20.1906 19.2087 21.9796 16.9995 21.9796C14.7904 21.9796 12.9995 20.1906 12.9995 17.9837C12.9995 17.432 12.5518 16.9847 11.9995 16.9847C11.4473 16.9847 10.9995 17.432 10.9995 17.9837C11.0094 19.9454 9.59235 21.6241 7.65519 21.9456C5.71803 22.2671 3.83373 21.1363 3.20806 19.2769C2.58239 17.4174 3.40041 15.3792 5.13867 14.4666C6.87692 13.554 9.02128 14.0368 10.1995 15.6061C11.2568 14.7793 12.7423 14.7793 13.7995 15.6061ZM6.99954 19.9816C5.89497 19.9816 4.99954 19.0871 4.99954 17.9837C4.99954 16.8802 5.89497 15.9857 6.99954 15.9857C8.10411 15.9857 8.99954 16.8802 8.99954 17.9837C8.99954 19.0871 8.10411 19.9816 6.99954 19.9816ZM14.9995 17.9837C14.9995 19.0871 15.895 19.9816 16.9995 19.9816C18.1041 19.9816 18.9995 19.0871 18.9995 17.9837C18.9995 16.8802 18.1041 15.9857 16.9995 15.9857C15.895 15.9857 14.9995 16.8802 14.9995 17.9837Z" fill="#F5F5F5"/>
</svg>
