<svg width="20" height="20" viewBox="0 0 24 24" fill="none" xmlns="http://www.w3.org/2000/svg">
  <path d="M12 2.163C15.204 2.163 15.584 2.175 16.85 2.233C18.11 2.292 18.87 2.473 19.45 2.653C20.1 2.86 20.6 3.11 21.1 3.61C21.6 4.11 21.85 4.61 22.05 5.26C22.23 5.84 22.41 6.6 22.47 7.86C22.53 9.13 22.54 9.51 22.54 12.72C22.54 15.93 22.53 16.31 22.47 17.58C22.41 18.84 22.23 19.6 22.05 20.18C21.85 20.83 21.6 21.33 21.1 21.83C20.6 22.33 20.1 22.58 19.45 22.78C18.87 22.96 18.11 23.14 16.85 23.2C15.58 23.26 15.2 23.27 12 23.27C8.8 23.27 8.42 23.26 7.15 23.2C5.89 23.14 5.13 22.96 4.55 22.78C3.9 22.58 3.4 22.33 2.9 21.83C2.4 21.33 2.15 20.83 1.95 20.18C1.77 19.6 1.59 18.84 1.53 17.58C1.47 16.31 1.46 15.93 1.46 12.72C1.46 9.51 1.47 9.13 1.53 7.86C1.59 6.6 1.77 5.84 1.95 5.26C2.15 4.61 2.4 4.11 2.9 3.61C3.4 3.11 3.9 2.86 4.55 2.653C5.13 2.473 5.89 2.292 7.15 2.233C8.42 2.175 8.8 2.163 12 2.163ZM12 0C8.74 0 8.33 0.013 7.05 0.072C5.78 0.132 4.59 0.333 3.48 0.63C2.31 0.94 1.31 1.35 0.48 2.18C-0.35 3.01 -0.76 4.01 -1.05 5.18C-0.75 6.29 -0.55 7.48 -0.49 8.75C-0.43 10.03 -0.42 10.44 -0.42 13.7C-0.42 16.96 -0.43 17.37 -0.49 18.65C-0.55 19.92 -0.75 21.11 -1.05 22.22C-0.76 23.39 -0.35 24.39 0.48 25.22C1.31 26.05 2.31 26.46 3.48 26.77C4.59 27.07 5.78 27.27 7.05 27.33C8.33 27.39 8.74 27.4 12 27.4C15.26 27.4 15.67 27.39 16.95 27.33C18.22 27.27 19.41 27.07 20.52 26.77C21.69 26.46 22.69 26.05 23.52 25.22C24.35 24.39 24.76 23.39 25.05 22.22C24.75 21.11 24.55 19.92 24.49 18.65C24.43 17.37 24.42 16.96 24.42 13.7C24.42 10.44 24.43 10.03 24.49 8.75C24.55 7.48 24.75 6.29 25.05 5.18C24.76 4.01 24.35 3.01 23.52 2.18C22.69 1.35 21.69 0.94 20.52 0.63C19.41 0.333 18.22 0.132 16.95 0.072C15.67 0.013 15.26 0 12 0Z" fill="currentColor"/>
  <path d="M12 5.838C8.597 5.838 5.838 8.597 5.838 12C5.838 15.403 8.597 18.162 12 18.162C15.403 18.162 18.162 15.403 18.162 12C18.162 8.597 15.403 5.838 12 5.838ZM12 16C9.791 16 8 14.209 8 12C8 9.791 9.791 8 12 8C14.209 8 16 9.791 16 12C16 14.209 14.209 16 12 16ZM19.845 5.594C19.845 6.146 19.397 6.594 18.845 6.594C18.293 6.594 17.845 6.146 17.845 5.594C17.845 5.042 18.293 4.594 18.845 4.594C19.397 4.594 19.845 5.042 19.845 5.594Z" fill="currentColor"/>
</svg>

