<svg width="20" height="20" viewBox="0 0 24 24" fill="none" xmlns="http://www.w3.org/2000/svg">
  <path d="M20.447 20.452H16.896V14.883C16.896 13.555 16.87 11.846 15.041 11.846C13.188 11.846 12.905 13.291 12.905 14.785V20.452H9.395V9H12.765V10.561H12.811C13.236 9.661 14.277 8.711 15.794 8.711C18.925 8.711 20.447 10.593 20.447 14.114V20.452ZM5.337 7.433C4.193 7.433 3.274 6.507 3.274 5.367C3.274 4.224 4.194 3.305 5.337 3.305C6.477 3.305 7.401 4.224 7.401 5.367C7.401 6.507 6.476 7.433 5.337 7.433ZM7.119 20.452H3.555V9H7.119V20.452ZM22.225 0H1.771C0.792 0 0 0.774 0 1.729V22.271C0 23.227 0.792 24 1.771 24H22.222C23.2 24 24 23.227 24 22.271V1.729C24 0.774 23.2 0 22.222 0H22.225Z" fill="currentColor"/>
</svg>

