<svg width="26" height="26" viewBox="0 0 26 26" fill="none" xmlns="http://www.w3.org/2000/svg">
<g clip-path="url(#clip0_45110_34567)">
<path d="M12.534 25.0681C19.4564 25.0681 25.0681 19.4564 25.0681 12.5341C25.0681 5.6117 19.4564 2.28882e-05 12.534 2.28882e-05C5.61168 2.28882e-05 0 5.6117 0 12.5341C0 19.4564 5.61168 25.0681 12.534 25.0681Z" fill="#F0F0F0"/>
<path d="M6.77513 17.4387L3.67188 21.3966C5.93995 23.6649 9.07311 25.0681 12.5344 25.0681C17.7159 25.0681 22.1623 21.9234 24.0711 17.4387H6.77513Z" fill="#FFDA44"/>
<path d="M24.0906 7.67482C22.1924 3.16594 17.7334 2.28882e-05 12.5344 2.28882e-05C9.07311 2.28882e-05 5.93995 1.4032 3.67188 3.67156L6.81077 7.67482H24.0906Z" fill="#496E2D"/>
<path d="M2.72656 9.21891V15.8038H24.6381C24.9192 14.7614 25.0698 13.6654 25.0698 12.5341C25.0698 11.3863 24.9152 10.2749 24.6262 9.21891H2.72656Z" fill="#000001"/>
<path d="M3.67112 3.67112C-1.22371 8.56595 -1.22371 16.5021 3.67112 21.397C5.69385 19.3743 7.63922 17.4289 12.5341 12.5341L3.67112 3.67112Z" fill="#D80027"/>
<path d="M5.07472 9.26437L5.88625 11.7622H8.51281L6.388 13.306L7.19948 15.8039L5.07472 14.2601L2.94985 15.8039L3.76153 13.306L1.63672 11.7622H4.26309L5.07472 9.26437Z" fill="#FFDA44"/>
</g>
<defs>
<clipPath id="clip0_45110_34567">
<rect width="25.0681" height="25.0681" fill="white"/>
</clipPath>
</defs>
</svg>
