<svg width="24" height="24" viewBox="0 0 24 24" fill="none" xmlns="http://www.w3.org/2000/svg">
<path d="M6.82954 3.92002C6.73488 3.82614 6.68164 3.69834 6.68164 3.56502C6.68164 3.4317 6.73488 3.30391 6.82954 3.21002L7.88954 2.15002C7.98027 2.05335 8.10695 1.9985 8.23954 1.9985C8.37213 1.9985 8.49881 2.05335 8.58954 2.15002L17.7795 11.34C17.9202 11.4805 17.9994 11.6712 17.9995 11.87V12.13C17.9994 12.3289 17.9202 12.5195 17.7795 12.66L8.58954 21.85C8.49881 21.9467 8.37213 22.0015 8.23954 22.0015C8.10695 22.0015 7.98027 21.9467 7.88954 21.85L6.82954 20.79C6.73488 20.6961 6.68164 20.5683 6.68164 20.435C6.68164 20.3017 6.73488 20.1739 6.82954 20.08L14.9095 12L6.82954 3.92002Z" fill="black"/>
</svg>
