<svg width="16" height="16" viewBox="0 0 16 16" fill="none" xmlns="http://www.w3.org/2000/svg">
<g opacity="0.5">
<path fill-rule="evenodd" clip-rule="evenodd" d="M13.3359 4.66663C14.0723 4.66663 14.6693 5.26358 14.6693 5.99996V12C14.6693 12.7363 14.0723 13.3333 13.3359 13.3333H2.66927C1.93289 13.3333 1.33594 12.7363 1.33594 12V5.99996C1.33594 5.26358 1.93289 4.66663 2.66927 4.66663H3.44927C3.80463 4.66691 4.14541 4.52532 4.39594 4.27329L5.41594 3.25329C5.79065 2.87811 6.29902 2.66709 6.82927 2.66663H9.17594C9.70619 2.66709 10.2146 2.87811 10.5893 3.25329L11.6093 4.27329C11.8598 4.52532 12.2006 4.66691 12.5559 4.66663H13.3359ZM5.33594 8.66663C5.33594 10.1394 6.52984 11.3333 8.0026 11.3333C8.70985 11.3333 9.38813 11.0523 9.88822 10.5522C10.3883 10.0521 10.6693 9.37387 10.6693 8.66663C10.6693 7.19387 9.47536 5.99996 8.0026 5.99996C6.52984 5.99996 5.33594 7.19387 5.33594 8.66663Z" fill="black"/>
</g>
</svg>
