<svg width="12" height="12" viewBox="0 0 12 12" fill="none" xmlns="http://www.w3.org/2000/svg">
<path fill-rule="evenodd" clip-rule="evenodd" d="M10 5C10 2.79086 8.20914 1 6 1C3.79086 1 2 2.79086 2 5C2 6.87241 2.91525 7.60845 3.7648 8.29166C4.32633 8.74323 4.85914 9.17172 5.08 9.89L5.335 10.66C5.4065 10.8727 5.61092 11.0117 5.835 11H6.115C6.33908 11.0117 6.5435 10.8727 6.615 10.66L6.87 9.89C7.10892 9.17719 7.64726 8.74978 8.21128 8.30198C9.0755 7.61584 10 6.88184 10 5ZM6.00007 2C4.34321 2 3.00007 3.34315 3.00007 5C3.00007 6.4 3.59007 6.87 4.41007 7.5C5.09947 7.96588 5.64911 8.61058 6.00007 9.365C6.35272 8.61167 6.902 7.96738 7.59007 7.5C8.41007 6.87 9.00007 6.4 9.00007 5C9.00007 3.34315 7.65692 2 6.00007 2ZM7.00011 5C7.00011 5.55229 6.55239 6 6.00011 6C5.44783 6 5.00011 5.55229 5.00011 5C5.00011 4.44772 5.44783 4 6.00011 4C6.55239 4 7.00011 4.44772 7.00011 5Z" fill="white"/>
</svg>
