<svg width="28" height="28" viewBox="0 0 28 28" fill="none" xmlns="http://www.w3.org/2000/svg">
<g clip-path="url(#clip0_45110_34613)">
<path d="M14 28C21.732 28 28 21.732 28 14C28 6.26801 21.732 0 14 0C6.26801 0 0 6.26801 0 14C0 21.732 6.26801 28 14 28Z" fill="#F0F0F0"/>
<path d="M4.1005 23.8995C-1.36683 18.4322 -1.36683 9.56785 4.1005 4.10047C4.10011 4.10107 12.174 14 12.174 14L4.1005 23.8995Z" fill="black"/>
<path d="M12.1732 14L1.85604 7.02805C1.53617 7.58406 1.25409 8.1644 1.01172 8.76509L6.23487 14.0001L1.01188 19.2353C1.25404 19.8355 1.53584 20.4155 1.85549 20.9711L12.1732 14Z" fill="#FFDA44"/>
<path d="M27.8807 12.1739H12.1728L4.09957 4.10069C3.2296 4.97065 2.47377 5.95454 1.85602 7.02811L8.8144 14L1.85547 20.971C2.47322 22.0449 3.22938 23.0291 4.09957 23.8993L12.1728 15.8261H27.8807C27.9585 15.2283 27.9992 14.6189 27.9992 14C27.9992 13.3811 27.9585 12.7717 27.8807 12.1739V12.1739Z" fill="#6DA544"/>
<path d="M5.47656 25.1058C7.83737 26.9204 10.7925 28 14.0003 28C20.4686 28 25.9115 23.6129 27.518 17.6522H12.9302L5.47656 25.1058Z" fill="#0052B4"/>
<path d="M27.518 10.3478C25.9115 4.38709 20.4686 0 14.0003 0C10.7925 0 7.83737 1.07959 5.47656 2.89423L12.9301 10.3478H27.518Z" fill="#D80027"/>
</g>
<defs>
<clipPath id="clip0_45110_34613">
<rect width="28" height="28" rx="14" fill="white"/>
</clipPath>
</defs>
</svg>
