<svg width="24" height="24" viewBox="0 0 24 24" fill="none" xmlns="http://www.w3.org/2000/svg">
<path d="M5.28273 19.4246L4.57562 18.7175C4.38036 18.5223 4.38036 18.2057 4.57562 18.0104L16.0095 6.5765L9.72336 6.58357C9.59004 6.58412 9.46202 6.5314 9.36775 6.43713C9.27348 6.34286 9.22076 6.21485 9.22131 6.08153L9.22838 5.08451C9.22784 4.95119 9.28055 4.82318 9.37482 4.7289C9.4691 4.63463 9.59711 4.58192 9.73043 4.58246L18.4066 4.57539C18.6055 4.57527 18.7962 4.65411 18.937 4.79459L19.2057 5.06329C19.3443 5.20522 19.4229 5.39521 19.4249 5.59362L19.4178 14.2698C19.4183 14.4031 19.3656 14.5312 19.2713 14.6254C19.1771 14.7197 19.0491 14.7724 18.9157 14.7719H17.9117C17.78 14.7732 17.6533 14.7215 17.5602 14.6284C17.4671 14.5353 17.4153 14.4086 17.4167 14.2769L17.4237 7.99072L5.98983 19.4246C5.79457 19.6199 5.47799 19.6199 5.28273 19.4246Z" fill="black"/>
</svg>
