<svg width="28" height="28" viewBox="0 0 28 28" fill="none" xmlns="http://www.w3.org/2000/svg">
<path fill-rule="evenodd" clip-rule="evenodd" d="M18.6717 9.33329C18.6717 11.9106 16.5816 14 14.0033 14C11.425 14 9.33482 11.9106 9.33482 9.33329C9.33482 6.75596 11.425 4.66663 14.0033 4.66663C16.5816 4.66663 18.6717 6.75596 18.6717 9.33329ZM16.3375 9.33329C16.3375 8.04463 15.2924 6.99996 14.0033 6.99996C12.7141 6.99996 11.669 8.04463 11.669 9.33329C11.669 10.622 12.7141 11.6666 14.0033 11.6666C15.2924 11.6666 16.3375 10.622 16.3375 9.33329ZM23.2117 21.6416L21.0059 17.1033C20.4028 15.8952 19.1584 15.1416 17.808 15.1666H10.1985C8.86903 15.164 7.65278 15.9143 7.05896 17.1033L4.79477 21.6416C4.61274 22.0027 4.63074 22.4323 4.84235 22.7769C5.05395 23.1216 5.42899 23.3321 5.8335 23.3333H22.173C22.5775 23.3321 22.9526 23.1216 23.1642 22.7769C23.3758 22.4323 23.3938 22.0027 23.2117 21.6416ZM9.14809 18.1416L7.72421 21H20.2823L18.8584 18.1416C18.6588 17.7455 18.2517 17.4969 17.808 17.5H10.1985C9.7548 17.4969 9.34774 17.7455 9.14809 18.1416Z" fill="black"/>
</svg>
