<svg width="16" height="16" viewBox="0 0 16 16" fill="none" xmlns="http://www.w3.org/2000/svg">
<path fill-rule="evenodd" clip-rule="evenodd" d="M14.4104 7.23113C14.2168 7.72853 14.2168 8.28039 14.4104 8.77779L14.5237 9.10446C14.9367 10.1831 14.4366 11.3965 13.3834 11.8711L13.0833 12.0045C12.591 12.2165 12.1928 12.6004 11.9629 13.0845L11.8295 13.3845C11.3547 14.4373 10.1409 14.9373 9.06197 14.5245L8.7552 14.4111C8.25764 14.2177 7.7056 14.2177 7.20804 14.4111L6.90127 14.5245C5.82232 14.9373 4.60852 14.4373 4.13371 13.3845L4.00033 13.0845C3.78819 12.5924 3.40418 12.1943 2.91998 11.9645L2.61989 11.8311C1.56668 11.3565 1.06653 10.1431 1.47952 9.06446L1.59289 8.75779C1.78642 8.26039 1.78642 7.70853 1.59289 7.21113L1.47952 6.90446C1.06653 5.82586 1.56668 4.61245 2.61989 4.13779L2.91998 4.00446C3.39722 3.7845 3.7803 3.40154 4.00033 2.92446L4.15372 2.62446C4.62905 1.56102 5.85665 1.05898 6.94128 1.48446L7.24805 1.59779C7.74562 1.79126 8.29765 1.79126 8.79522 1.59779L9.10198 1.48446C10.1809 1.07161 11.3947 1.57159 11.8695 2.62446L12.0029 2.92446C12.223 3.40154 12.606 3.7845 13.0833 4.00446L13.3834 4.15779C14.4366 4.63245 14.9367 5.84586 14.5237 6.92446L14.4104 7.23113ZM7.15472 10.2378L10.9026 6.49113C11.0254 6.36236 11.0254 6.15989 10.9026 6.03113L10.5492 5.6778C10.4195 5.55075 10.212 5.55075 10.0823 5.6778L6.92131 8.8378L5.92099 7.84446C5.86048 7.78001 5.776 7.74345 5.68758 7.74345C5.59916 7.74345 5.51468 7.78001 5.45417 7.84446L5.10072 8.1978C5.0376 8.26038 5.00209 8.34558 5.00209 8.43446C5.00209 8.52334 5.0376 8.60854 5.10072 8.67113L6.6879 10.2378C6.74841 10.3022 6.83289 10.3388 6.92131 10.3388C7.00973 10.3388 7.09421 10.3022 7.15472 10.2378Z" fill="#007AFF"/>
</svg>
