<svg width="16" height="16" viewBox="0 0 16 16" fill="none" xmlns="http://www.w3.org/2000/svg">
<g opacity="0.5">
<path fill-rule="evenodd" clip-rule="evenodd" d="M14.2759 4.66671H14.3359C14.52 4.66671 14.6693 4.81595 14.6693 5.00004V11C14.6693 11.1841 14.52 11.3334 14.3359 11.3334H14.2759C14.101 11.3326 13.9334 11.2632 13.8093 11.14L12.0026 9.33337V11.3334C12.0026 12.0698 11.4057 12.6667 10.6693 12.6667H2.66927C1.93289 12.6667 1.33594 12.0698 1.33594 11.3334V4.66671C1.33594 3.93033 1.93289 3.33337 2.66927 3.33337H10.6693C11.4057 3.33337 12.0026 3.93033 12.0026 4.66671V6.66671L13.8093 4.86004C13.9334 4.73688 14.101 4.66744 14.2759 4.66671ZM3.33594 6.92004C3.33594 7.10414 3.48518 7.25337 3.66927 7.25337H6.33594C6.52003 7.25337 6.66927 7.10414 6.66927 6.92004V6.41337C6.66927 6.22928 6.52003 6.08004 6.33594 6.08004H3.66927C3.48518 6.08004 3.33594 6.22928 3.33594 6.41337V6.92004Z" fill="black"/>
</g>
</svg>
