<svg width="28" height="28" viewBox="0 0 28 28" fill="none" xmlns="http://www.w3.org/2000/svg">
<path d="M24.5 14.28V23.3333C24.5 23.9777 23.9777 24.5 23.3333 24.5H18.6667C18.0223 24.5 17.5 23.9777 17.5 23.3333V16.9167C17.5 16.5945 17.2388 16.3333 16.9167 16.3333H11.0833C10.7612 16.3333 10.5 16.5945 10.5 16.9167V23.3333C10.5 23.9777 9.97767 24.5 9.33333 24.5H4.66667C4.02233 24.5 3.5 23.9777 3.5 23.3333V14.28C3.50082 13.3521 3.8701 12.4624 4.52667 11.8067L12.495 3.83833C12.7123 3.6228 13.0056 3.50129 13.3117 3.5H14.6883C14.9944 3.50129 15.2877 3.6228 15.505 3.83833L23.4733 11.8067C24.1299 12.4624 24.4992 13.3521 24.5 14.28Z" fill="black"/>
</svg>
