<svg width="24" height="24" viewBox="0 0 24 24" fill="none" xmlns="http://www.w3.org/2000/svg">
<g opacity="0.5">
<path fill-rule="evenodd" clip-rule="evenodd" d="M22.1479 5.82999L22.8479 6.53999C22.9426 6.63388 22.9958 6.76168 22.9958 6.89499C22.9958 7.02831 22.9426 7.15611 22.8479 7.24999L12.2479 17.85C12.154 17.9447 12.0262 17.9979 11.8929 17.9979C11.7596 17.9979 11.6318 17.9447 11.5379 17.85L6.1479 12.46C6.05324 12.3661 6 12.2383 6 12.105C6 11.9717 6.05324 11.8439 6.1479 11.75L6.8479 11.05C6.94178 10.9553 7.06958 10.9021 7.2029 10.9021C7.33622 10.9021 7.46402 10.9553 7.5579 11.05L9.3979 12.93L16.3979 5.87999C16.5957 5.68821 16.9101 5.68821 17.1079 5.87999L17.8079 6.58999C17.9026 6.68388 17.9558 6.81168 17.9558 6.94499C17.9558 7.07831 17.9026 7.20611 17.8079 7.29999L10.8079 14.3L11.8879 15.38L21.4379 5.82999C21.6357 5.63821 21.9501 5.63821 22.1479 5.82999ZM8.3079 16.79L2.5579 11.05C2.46402 10.9553 2.33622 10.9021 2.2029 10.9021C2.06958 10.9021 1.94178 10.9553 1.8479 11.05L1.1479 11.75C1.05324 11.8439 1 11.9717 1 12.105C1 12.2383 1.05324 12.3661 1.1479 12.46L6.5379 17.85C6.63178 17.9447 6.75958 17.9979 6.8929 17.9979C7.02622 17.9979 7.15402 17.9447 7.2479 17.85L8.3079 16.79Z" fill="black"/>
</g>
</svg>
