<svg width="24" height="24" viewBox="0 0 24 24" fill="none" xmlns="http://www.w3.org/2000/svg">
<path fill-rule="evenodd" clip-rule="evenodd" d="M8.10133 10.999C9.75819 10.999 11.1013 9.65588 11.1013 7.99902C11.1013 6.34217 9.75819 4.99902 8.10133 4.99902C6.44448 4.99902 5.10133 6.34217 5.10133 7.99902C5.10133 9.65588 6.44448 10.999 8.10133 10.999ZM8.10133 6.2959C9.04194 6.2959 9.80446 7.05841 9.80446 7.99902C9.80446 8.93963 9.04194 9.70215 8.10133 9.70215C7.16072 9.70215 6.39821 8.93963 6.39821 7.99902C6.39821 7.05841 7.16072 6.2959 8.10133 6.2959ZM13.6832 15.0697L15.1013 17.9125C15.2184 18.1447 15.2068 18.4209 15.0707 18.6425C14.9347 18.864 14.6936 18.9994 14.4335 19.0002H1.60645C1.34639 18.9994 1.10529 18.864 0.969249 18.6425C0.83321 18.4209 0.821637 18.1447 0.938664 17.9125L2.35677 15.0697C2.99283 13.8007 4.29094 12.9995 5.71071 12.9994H10.3293C11.7491 12.9995 13.0472 13.8007 13.6832 15.0697ZM2.82197 17.5012L3.69985 15.746C4.08041 14.9839 4.85872 14.502 5.71071 14.5008H10.3293C11.1813 14.502 11.9596 14.9839 12.3401 15.746L13.218 17.5012H2.82197ZM19.0388 7.99902C19.0388 9.65588 17.6957 10.999 16.0388 10.999C14.382 10.999 13.0388 9.65588 13.0388 7.99902C13.0388 6.34217 14.382 4.99902 16.0388 4.99902C17.6957 4.99902 19.0388 6.34217 19.0388 7.99902ZM17.742 7.99902C17.742 7.05841 16.9794 6.2959 16.0388 6.2959C15.0982 6.2959 14.3357 7.05841 14.3357 7.99902C14.3357 8.93963 15.0982 9.70215 16.0388 9.70215C16.9794 9.70215 17.742 8.93963 17.742 7.99902ZM23.0609 17.9125L21.6428 15.0697C21.0067 13.8007 19.7086 12.9995 18.2888 12.9994H14.6126C15.0608 13.426 15.4409 13.9311 15.7302 14.5008H18.2888C19.1408 14.502 19.9191 14.9839 20.2997 15.746L21.1776 17.5012H17.2271L17.8351 18.7201C17.8803 18.8099 17.9125 18.9041 17.9318 19.0002H22.3931C22.6531 18.9994 22.8942 18.864 23.0303 18.6425C23.1663 18.4209 23.1779 18.1447 23.0609 17.9125Z" fill="#F5F5F5"/>
</svg>
