<svg width="20" height="20" viewBox="0 0 20 20" fill="none" xmlns="http://www.w3.org/2000/svg">
<path fill-rule="evenodd" clip-rule="evenodd" d="M13.3333 2.5H6.66667C4.36548 2.5 2.5 4.36548 2.5 6.66667V13.3333C2.5 15.6345 4.36548 17.5 6.66667 17.5H13.3333C15.6345 17.5 17.5 15.6345 17.5 13.3333V6.66667C17.5 4.36548 15.6345 2.5 13.3333 2.5ZM16.0417 13.3333C16.0371 14.8272 14.8272 16.0371 13.3333 16.0417H6.66667C5.17279 16.0371 3.96291 14.8272 3.95833 13.3333V6.66667C3.96291 5.17279 5.17279 3.96291 6.66667 3.95833H13.3333C14.8272 3.96291 16.0371 5.17279 16.0417 6.66667V13.3333ZM13.9583 6.875C14.4186 6.875 14.7917 6.5019 14.7917 6.04167C14.7917 5.58143 14.4186 5.20833 13.9583 5.20833C13.4981 5.20833 13.125 5.58143 13.125 6.04167C13.125 6.5019 13.4981 6.875 13.9583 6.875ZM10 6.25C7.92893 6.25 6.25 7.92893 6.25 10C6.25 12.0711 7.92893 13.75 10 13.75C12.0711 13.75 13.75 12.0711 13.75 10C13.7522 9.00476 13.3578 8.04964 12.6541 7.3459C11.9504 6.64216 10.9952 6.24778 10 6.25ZM7.70833 10C7.70833 11.2657 8.73435 12.2917 10 12.2917C11.2657 12.2917 12.2917 11.2657 12.2917 10C12.2917 8.73435 11.2657 7.70833 10 7.70833C8.73435 7.70833 7.70833 8.73435 7.70833 10Z" fill="#000"/>
</svg>
