<svg width="12" height="12" viewBox="0 0 12 12" fill="none" xmlns="http://www.w3.org/2000/svg">
<path fill-rule="evenodd" clip-rule="evenodd" d="M10.5002 3.83V4C10.5006 4.53304 10.2882 5.0442 9.9102 5.42L8.5002 6.835C8.23713 7.09555 7.81327 7.09555 7.5502 6.835L7.5002 6.78C7.40491 6.68279 7.40491 6.52721 7.5002 6.43L9.2202 4.71C9.40372 4.51966 9.5044 4.26438 9.5002 4V3.83C9.50041 3.56348 9.39422 3.3079 9.2052 3.12L8.8802 2.795C8.6923 2.60598 8.43672 2.49979 8.1702 2.5H8.0002C7.73367 2.49979 7.47809 2.60598 7.2902 2.795L5.5702 4.5C5.47298 4.59528 5.31741 4.59528 5.2202 4.5L5.1652 4.445C4.90464 4.18193 4.90464 3.75807 5.1652 3.495L6.5802 2.075C6.95845 1.70246 7.46931 1.4956 8.0002 1.5H8.1702C8.70079 1.49958 9.2098 1.71002 9.5852 2.085L9.9152 2.415C10.2902 2.79039 10.5006 3.29941 10.5002 3.83ZM4.32535 6.97L6.97036 4.325C7.0173 4.27767 7.0812 4.25105 7.14785 4.25105C7.21451 4.25105 7.27841 4.27767 7.32536 4.325L7.67535 4.675C7.72268 4.72194 7.7493 4.78584 7.7493 4.8525C7.7493 4.91916 7.72268 4.98306 7.67535 5.03L5.03035 7.675C4.98341 7.72233 4.91951 7.74895 4.85285 7.74895C4.7862 7.74895 4.7223 7.72233 4.67535 7.675L4.32535 7.325C4.27803 7.27806 4.2514 7.21416 4.2514 7.1475C4.2514 7.08084 4.27803 7.01694 4.32535 6.97ZM6.78015 7.5C6.68294 7.40471 6.52736 7.40471 6.43015 7.5L4.71515 9.205C4.52603 9.39526 4.2684 9.50155 4.00015 9.5H3.83015C3.56363 9.50021 3.30805 9.39402 3.12015 9.205L2.79515 8.88C2.60613 8.6921 2.49994 8.43652 2.50015 8.17V8C2.49994 7.73348 2.60613 7.4779 2.79515 7.29L4.50515 5.57C4.60043 5.47279 4.60043 5.31721 4.50515 5.22L4.45015 5.165C4.18708 4.90444 3.76322 4.90444 3.50015 5.165L2.09015 6.58C1.71211 6.9558 1.49973 7.46696 1.50015 8V8.175C1.50105 8.70386 1.71139 9.21083 2.08515 9.585L2.41515 9.915C2.79054 10.29 3.29956 10.5004 3.83015 10.5H4.00015C4.52687 10.5031 5.03354 10.2983 5.41015 9.93L6.83515 8.505C7.0957 8.24193 7.0957 7.81807 6.83515 7.555L6.78015 7.5Z" fill="white"/>
</svg>
