<svg width="20" height="20" viewBox="0 0 20 20" fill="none" xmlns="http://www.w3.org/2000/svg">
<g opacity="0.3">
<path d="M17.4997 6.23333V7.9C17.4985 8.01652 17.4504 8.12766 17.3663 8.20833C17.2821 8.2841 17.1711 8.32309 17.058 8.31667C15.6962 8.23054 14.3947 7.7239 13.333 6.86667V13.3333C13.333 16.0948 11.0944 18.3333 8.33301 18.3333C5.57158 18.3333 3.33301 16.0948 3.33301 13.3333C3.33301 10.5719 5.57158 8.33333 8.33301 8.33333C8.48567 8.32504 8.63868 8.32504 8.79134 8.33333C9.00375 8.35073 9.16705 8.52855 9.16634 8.74167V10.4083C9.16721 10.527 9.11531 10.64 9.02467 10.7167C8.93404 10.798 8.81181 10.8347 8.69134 10.8167C8.57166 10.8139 8.45192 10.8195 8.33301 10.8333C6.9523 10.8333 5.83301 11.9526 5.83301 13.3333C5.83301 14.714 6.9523 15.8333 8.33301 15.8333C9.71372 15.8333 10.833 14.714 10.833 13.3333V2.08333C10.833 1.85321 11.0196 1.66667 11.2497 1.66667H12.9163C13.1311 1.66559 13.3115 1.82796 13.333 2.04167C13.5077 4.05897 15.1074 5.65865 17.1247 5.83333C17.3322 5.85406 17.4924 6.02495 17.4997 6.23333Z" fill="#F5F5F5"/>
</g>
</svg>
