<svg width="24" height="24" viewBox="0 0 24 24" fill="none" xmlns="http://www.w3.org/2000/svg">
<path fill-rule="evenodd" clip-rule="evenodd" d="M12.2 3.00018C12.4 3.00018 12.6 3.10018 12.7 3.20018L17.8 8.40018C18 8.60018 18 8.90018 17.8 9.10018L17.1 9.80018C17 10.0002 16.6 10.0002 16.4 9.70018L13 6.30018L13 16.5002C13 16.8002 12.8 17.0002 12.5 17.0002L11.5 17.0002C11.2 17.0002 11 16.8002 11 16.5002L11 6.30018L7.60005 9.70018C7.40005 9.90018 7.10005 9.90018 6.90005 9.70018L6.20005 9.00018C6.00005 8.80018 6.00005 8.50018 6.20005 8.30018L11.3 3.20018C11.4 3.10018 11.6 3.00018 11.8 3.00018H12.2ZM21 15.5V19C21 20.1 20.1 21 19 21H5C3.9 21 3 20.1 3 19V15.5C3 15.2 3.2 15 3.5 15H4.5C4.8 15 5 15.2 5 15.5V19H19V15.5C19 15.2 19.2 15 19.5 15H20.5C20.8 15 21 15.2 21 15.5Z" fill="black"/>
</svg>
