<svg width="24" height="24" viewBox="0 0 24 24" fill="none" xmlns="http://www.w3.org/2000/svg">
<path fill-rule="evenodd" clip-rule="evenodd" d="M3 8.5V5C3 3.89543 3.89543 3 5 3H8.5C8.77614 3 9 3.22386 9 3.5V4.5C9 4.77614 8.77614 5 8.5 5H5V8.5C5 8.77614 4.77614 9 4.5 9H3.5C3.22386 9 3 8.77614 3 8.5ZM15.5 5H19V8.5C19 8.77614 19.2239 9 19.5 9H20.5C20.7761 9 21 8.77614 21 8.5V5C21 3.89543 20.1046 3 19 3H15.5C15.2239 3 15 3.22386 15 3.5V4.5C15 4.77614 15.2239 5 15.5 5ZM5 19H8.5C8.77614 19 9 19.2239 9 19.5V20.5C9 20.7761 8.77614 21 8.5 21H5C3.89543 21 3 20.1046 3 19V15.5C3 15.2239 3.22386 15 3.5 15H4.5C4.77614 15 5 15.2239 5 15.5V19ZM20.5 15H19.5C19.2239 15 19 15.2239 19 15.5V19H15.5C15.2239 19 15 19.2239 15 19.5V20.5C15 20.7761 15.2239 21 15.5 21H19C20.1046 21 21 20.1046 21 19V15.5C21 15.2239 20.7761 15 20.5 15ZM2.5 11H21.5C21.7761 11 22 11.2239 22 11.5V12.5C22 12.7761 21.7761 13 21.5 13H2.5C2.22386 13 2 12.7761 2 12.5V11.5C2 11.2239 2.22386 11 2.5 11Z" fill="#242424"/>
</svg>
